<svg id="Layer_1" data-name="Layer 1" xmlns="http://www.w3.org/2000/svg" xmlns:xlink="http://www.w3.org/1999/xlink" viewBox="0 0 503.71 406.42"><defs><style>.cls-1,.cls-15{fill:none;}.cls-1{stroke:#f3ea18;}.cls-1,.cls-10,.cls-11,.cls-12,.cls-15,.cls-16,.cls-2,.cls-3,.cls-4,.cls-5,.cls-6,.cls-7,.cls-8,.cls-9{stroke-miterlimit:10;}.cls-1,.cls-15,.cls-16{stroke-width:17px;}.cls-2{fill:#c5c928;}.cls-10,.cls-2,.cls-3,.cls-4,.cls-5,.cls-6,.cls-7,.cls-8,.cls-9{stroke:#0c6a37;}.cls-10,.cls-11,.cls-12,.cls-2,.cls-3,.cls-4,.cls-5,.cls-6,.cls-7,.cls-8,.cls-9{stroke-width:22px;}.cls-3{fill:url(#linear-gradient);}.cls-4{fill:url(#linear-gradient-2);}.cls-5{fill:url(#linear-gradient-3);}.cls-6{fill:url(#linear-gradient-4);}.cls-7{fill:url(#linear-gradient-5);}.cls-8{fill:url(#linear-gradient-6);}.cls-9{fill:url(#linear-gradient-7);}.cls-10{fill:#e0e32d;}.cls-11{fill:#0e1800;stroke:#20562a;}.cls-12{fill:#e71e25;stroke:#b34025;}.cls-13{font-size:34.52px;fill:#fff;font-family:MyriadPro-Regular, Myriad Pro;}.cls-14{letter-spacing:-0.01em;}.cls-15,.cls-16{stroke:#656628;}.cls-16{fill:#8f8f68;}</style><linearGradient id="linear-gradient" x1="60.59" y1="366.39" x2="467.78" y2="366.39" gradientUnits="userSpaceOnUse"><stop offset="0" stop-color="#82c342"/><stop offset="1" stop-color="#84c441"/></linearGradient><linearGradient id="linear-gradient-2" x1="121.78" y1="327.43" x2="121.78" y2="327.43" xlink:href="#linear-gradient"/><linearGradient id="linear-gradient-3" x1="62" y1="128.73" x2="130.36" y2="128.73" xlink:href="#linear-gradient"/><linearGradient id="linear-gradient-4" x1="104.37" y1="72.95" x2="191.32" y2="72.95" xlink:href="#linear-gradient"/><linearGradient id="linear-gradient-5" x1="154.04" y1="128.73" x2="218.28" y2="128.73" xlink:href="#linear-gradient"/><linearGradient id="linear-gradient-6" x1="194.1" y1="119.53" x2="373.06" y2="119.53" xlink:href="#linear-gradient"/><linearGradient id="linear-gradient-7" x1="265.98" y1="69.85" x2="272.86" y2="69.85" xlink:href="#linear-gradient"/></defs><path class="cls-1" d="M306.81,474.11C297.19,517.88,374.88,600.78,439,577.59c53.29-19.28,74.9-103.82,48-138.89C450.65,391.29,317.83,424,306.81,474.11Z" transform="translate(-49.59 -262.43)"/><path class="cls-2" d="M188,420.11c-15.25,4.71-24.19,20.38-22.37,33,3.1,21.37,37.33,35.05,53.8,22,9.87-7.82,13.43-25.28,6-39.08C218.46,422.81,202.8,415.54,188,420.11Z" transform="translate(-49.59 -262.43)"/><path class="cls-2" d="M444,416.73c-20.29,6.13-32.19,26.51-29.76,42.88,4.11,27.79,49.67,45.58,71.59,28.59,13.13-10.17,17.86-32.89,8-50.82C484.53,420.24,463.69,410.79,444,416.73Z" transform="translate(-49.59 -262.43)"/><path class="cls-3" d="M110.48,438.74a152.75,152.75,0,0,0,43.42,13.43c22.24,3.5,49.6,3.83,95.71,5.7,38.15,1.55,104.12,4.76,187-8.7,14.66-2.38,24.31-4.38,28.69-12.17,17.33-30.78-57.22-134.73-153-158.26-69.32-17-144.28,9.39-194.19,44.07-37.21,25.86-60.49,56.31-57.12,76.8C63.75,416.82,85.41,427,110.48,438.74Z" transform="translate(-49.59 -262.43)"/><path class="cls-4" d="M121.78,327.43" transform="translate(-49.59 -262.43)"/><line class="cls-5" x1="62" y1="65" x2="130.36" y2="192.46"/><polyline class="cls-6" points="104.37 128.73 158.08 59.82 191.32 17.17"/><polyline class="cls-7" points="218.28 192.46 194.1 144.49 154.04 65"/><polyline class="cls-8" points="373.06 94.57 272.86 122.52 194.1 144.49"/><line class="cls-9" x1="265.98" y1="17.17" x2="272.86" y2="122.52"/><path class="cls-10" d="M359.39,454.9v-8.33" transform="translate(-49.59 -262.43)"/><path class="cls-10" d="M90.66,420.52C70.37,426.65,58.48,447,60.9,463.4,65,491.19,110.57,509,132.49,492c13.13-10.18,17.87-32.9,8-50.83C131.16,424,110.32,414.58,90.66,420.52Z" transform="translate(-49.59 -262.43)"/><path class="cls-10" d="M278.07,444.48c-20.3,6.13-32.19,26.51-29.77,42.89C252.42,515.15,298,533,319.89,516c13.13-10.17,17.87-32.89,8.05-50.83C318.56,448,297.72,438.54,278.07,444.48Z" transform="translate(-49.59 -262.43)"/><path class="cls-2" d="M374.65,426.21C425.86,404.41,499.12,468,493.1,502.1c-3.91,22.18-41.4,32.71-59.27,35.33-36.32,5.33-90.17-7.56-98.31-43.39C329.56,467.83,349.73,436.82,374.65,426.21Z" transform="translate(-49.59 -262.43)"/><path class="cls-11" d="M385.34,477.55c.72-3.08-3.31-5.82-4.78-5.22-1.8.74-1.78,7.37.44,8.26C382.37,481.15,384.86,479.64,385.34,477.55Z" transform="translate(-49.59 -262.43)"/><path class="cls-11" d="M440,473.32c.72-3.08-3.31-5.82-4.78-5.22-1.8.74-1.78,7.37.44,8.26C437.06,476.92,439.55,475.41,440,473.32Z" transform="translate(-49.59 -262.43)"/><path class="cls-12" d="M371.61,441.92c111.46-2.73,167.19-4.09,170.52-20.67,2.19-10.89-17-26.62-34.53-27.62-18.47-1.05-26.39,14.81-39.06,11.76-18.14-4.38-9.66-38.79-31.44-51.28-21.22-12.18-56.74,4.72-74.46,17.57C340.09,388,318.23,418.22,328,433,334.27,442.49,351.36,442.42,371.61,441.92Z" transform="translate(-49.59 -262.43)"/><text class="cls-13" transform="translate(299.68 152.51)">sup<tspan class="cls-14" x="52.33" y="0">r</tspan><tspan x="63.28" y="0">eme</tspan></text><path class="cls-15" d="M230.33,559.82c-8.92-14.22,2.94-48.43,28.69-55.65,30.87-8.66,59.89,27.58,55.65,44.35C309.23,570.06,243.48,580.8,230.33,559.82Z" transform="translate(-49.59 -262.43)"/><path class="cls-16" d="M213.07,560.67c-7.95,8.2-8.32,20.09-9.06,43.86s-1.16,37.06,6.79,46.7c5.5,6.66,13.6,9.94,63.44,9,64.44-1.27,72.08-7.16,76.12-13.21,6.85-10.27,4.75-23.12.91-46.69-3.73-22.84-6.26-38.3-17.68-46.69-11.83-8.7-21-.78-58.45,1.41C235.62,557.32,223.61,549.81,213.07,560.67Z" transform="translate(-49.59 -262.43)"/><image width="1280" height="886" transform="translate(185.48 325.21) scale(0.06 0.06)" xlink:href="../Downloads/gucci.png"/></svg>